<?xml version="1.0" encoding="UTF-8"?>
<!DOCTYPE svg PUBLIC "-//W3C//DTD SVG 1.1//EN" "http://www.w3.org/Graphics/SVG/1.1/DTD/svg11.dtd">
<!-- Creator: CorelDRAW -->
<svg xmlns="http://www.w3.org/2000/svg" xml:space="preserve" width="8.5in" height="11in" version="1.1" style="shape-rendering:geometricPrecision; text-rendering:geometricPrecision; image-rendering:optimizeQuality; fill-rule:evenodd; clip-rule:evenodd"
viewBox="0 0 8500 11000"
 xmlns:xlink="http://www.w3.org/1999/xlink"
 xmlns:xodm="http://www.corel.com/coreldraw/odm/2003">
 <defs>
  <style type="text/css">
   <![CDATA[
    .fil0 {fill:#00A859}
   ]]>
  </style>
 </defs>
 <g id="Layer_x0020_1">
  <metadata id="CorelCorpID_0Corel-Layer"/>
  <path class="fil0" d="M3621.33 3138.59c-10.65,0.65 -157.34,-10.94 -207.78,-4.72 -10.12,1.24 6.29,44.28 -1.65,45.65 -6.15,1.07 -22.25,-1.68 -34.45,1.47 -13.37,3.45 -7.42,20.3 -8.81,32.53 -0.93,8.05 -40.95,-0.16 -42.32,7.44 -2.31,12.89 10.34,126.96 -2.18,125.33 -41.41,-5.33 -39.82,-0.73 -41.07,3.08 -1.91,5.89 -0.47,27.66 -2.55,33.11 -2.32,6.03 49.38,2.45 46.83,7.95 -3.47,7.41 -1.69,27.07 -5.73,33.55 -3.5,5.6 -79.42,0.15 -83.32,5 -2.34,2.91 -1.28,-45.78 -3.63,-43.13 -4.73,5.29 -77.59,0.26 -82.52,4.91 -4.21,4.02 2.03,34.58 -2.04,38.15 -3.91,3.44 -168.15,-2.03 -171.98,0.87 -14.13,10.86 6.91,-82.07 0.74,-82.11 -22.8,-0.16 -32.97,0.71 -40.23,0.48 -10.02,-0.31 -8.52,-28.8 -4.99,-44.08 1.24,-5.26 -34.9,-3.55 -85.58,-5.83 -5.18,-0.22 3,47.94 -1.79,48.17 -10.26,0.47 -28.09,0.41 -36.87,2.26 -8.8,1.87 0.48,31.85 -6.83,34.92 -7.92,3.33 -31.88,1.05 -38.48,5.05 -8.47,5.08 1.04,34.21 -4.97,40.24 -4.07,4.07 -20.67,-7.65 -24.11,-3.79 -28.87,32.27 -23.22,163.87 -23.17,176.78 0.71,150.15 -1.76,147.85 6.24,161.41 8.09,13.73 46.83,-2.28 47.39,7.91 0.92,17.64 2.28,77.02 -14.81,77.4 -33.09,0.73 -101.2,-2.32 -115.85,-1.85 -14.44,0.47 7.2,-16.76 -4.68,-38.26 -4.37,-7.89 -28.32,7.41 -42.65,-7.18 -5.73,-5.83 9.92,-30.5 0.28,-35.15 -32.47,-15.65 -107.97,-5.16 -160.34,-6.79 -28.35,-0.87 -122.54,-2.74 -141.69,8.65 -7.57,4.49 -15.06,43.99 1.39,77.24 5.86,11.84 33.22,-2.19 39.69,8.68 3.44,5.83 -1.69,65.09 0.41,75.45 1.19,6.04 -44.28,-0.23 -85.86,1.71 -6.07,0.28 4.91,37.6 -8.48,45.17 -4.49,2.55 -74.78,-5.91 -75.73,-1.19 -7.67,38.5 -5.07,71.19 -4.31,111.89 0.4,25.41 30.82,8.87 125.62,15.99 15.33,1.15 14.04,15.21 9.36,73.05 -5.58,-1.23 -41.37,-1.42 -40.89,10.83 0.39,10.02 1.76,20.14 -3.15,29.46 -4.58,8.65 -29.8,-0.68 -38.09,5.98 -12.43,10 1.52,43.13 -11.75,44.89 -12.86,1.68 -24.59,6.3 -34.4,5.02 -11.44,-1.5 3.76,-41.04 -5.44,-45.36 -28.93,-13.54 -115.97,-1.31 -165.7,-1.55 -23.48,-0.13 6.15,30.92 -13.41,37.89 -14.8,5.28 -62.09,-1.95 -74.47,2.85 -16.7,6.47 -9.94,54.8 -7.36,79.86 0.92,9.18 -23.2,3 -37.93,6.45 -8.67,2 -3.31,28.74 -3.89,35.87 -1.58,18.72 49.72,-6.11 49.65,17.93 -0.02,20.56 -10.54,87.81 -3.69,106.87 3.69,10.44 35.05,-1.45 40.82,5.96 6.58,8.42 0.56,36.08 6.91,42.61 10.43,10.7 35.82,-1.5 67.3,-2.86 38.85,-1.68 71.68,6.04 84.23,0.5 26.35,-11.65 10.93,-27.91 14.7,-41.34 2.73,-9.7 30.8,-0.68 44.33,-5.02 13.57,-4.35 -11.15,-35.32 2.13,-40.03 19.52,-6.89 110.09,0.65 122.23,-0.1 20.65,-1.27 -4.82,-37.68 9.8,-37.68 14.89,0 24.8,-8.79 37.87,-0.22 10.76,7.04 9.18,35.79 -0.03,40.08 -11.3,5.31 -31.06,-7.23 -42.42,10.02 -12.06,18.26 22.02,86.13 -2.39,110.69 -16.63,16.78 -79.85,-6.6 -127.75,-0.94 -19.75,2.34 -33.93,0.42 -39.74,10 -16.36,27 14.3,95.85 -11.89,155.21 -4,9.07 -24.51,-0.81 -31.43,7.6 -10.36,12.56 8.33,60.57 -8.5,74.37 -5.44,4.44 59.48,6.02 50.85,7.94 -12.76,2.81 23.14,41.1 -7.59,41.39 -17.36,0.15 -137.72,0.6 -166.85,0.1 -11.34,-0.21 15.28,-41.44 -4.21,-37.05 -5.63,1.26 -66.93,-7.49 -78.98,-0.5 -11.81,6.86 5.1,63.31 -6.1,74.59 -7.11,7.18 -26.94,-1.94 -33.87,4.73 -22.17,21.33 -11.02,104.69 -5.87,124.65 4.69,18.27 18.15,3.18 67.14,4.33 16.46,0.39 8.45,-33.55 24.24,-40.41 19.98,-8.67 79.44,-5.7 122.32,-7.3 0.6,-0.02 -12.07,68.8 4.99,84.13 8.57,7.7 21.67,-1.02 32.01,4.68 6.75,3.71 0.94,36.03 7.09,40.89 8.78,6.97 33.61,-0.76 41.42,4.21 12.8,8.17 8.36,46.39 0.29,73.42 -2.74,9.33 -32.17,2.54 -39.69,8.54 -14.35,11.44 1.94,11.2 -8.17,35.28 -2.57,6 -38.68,2.55 -38.98,7.63 -0.4,7.21 -4.48,27.93 2.02,34.82 5.81,6.21 29.43,-2.15 39.42,2.66 6.96,3.34 -2.78,34.5 5.29,37.11 35.02,11.39 90.78,23.01 126.19,0.72 10.18,-6.44 -2.55,-22.01 4.42,-33.08 3.44,-5.42 38.89,-2.53 42.23,-8.73 15.2,-27.95 10.33,-72.92 -4.41,-121.1 -1.7,-5.6 -35.34,6.15 -37.85,1.15 -2.95,-5.86 -5.37,-41.86 22.81,-35.42 14.93,3.41 12.34,-27.83 21.83,-46.81 5.33,-10.72 30.95,3.74 39.95,-2.91 12.3,-9.09 -6.63,-40.65 9.26,-39.78 8.92,0.48 22.51,-8.15 31.9,0.6 5.28,4.89 -2.07,27.9 2.92,34.77 5.07,7.04 36.39,-2.21 42.12,4.04 10.23,11.1 -1.63,29.8 0.96,40 2.24,8.76 19.22,10.02 24.19,8.79 19.9,-4.85 24.46,-142.82 15.41,-211.65 -1.84,-13.89 -31.83,-1.69 -40.87,-6.02 -7.21,-3.47 1.71,-45.74 -1.78,-81.15 10.5,-8.17 39.58,0.92 69.83,-1.41 41.1,-3.16 83.99,1.97 102.5,2.48 16.6,0.45 2.73,84.17 2.63,112.16 -0.18,30.46 76.13,1.31 86.39,15.28 8.5,11.58 -8.22,33.76 0.3,38.59 15.96,9.1 74.89,6.18 126.73,-1.34 14.54,-2.11 -2.26,-33.22 12.97,-39.28 13.14,-5.19 37.54,-4.6 79.2,-3.1 22.67,0.81 -8.33,65.32 9.57,83.89 8.5,8.84 19.85,-0.65 32.95,0.59 36.08,3.45 81.05,0.39 82.63,12.86 4.99,39.18 6.67,72.4 6.65,101.67 0,7.89 28.19,5.79 38.37,13.94 6.76,5.39 -2.97,21.33 -3.16,26.01 -0.57,12.12 -37.47,20.98 -38.29,32.03 -2.39,31.53 -5.13,59.49 -4.57,88.57 0.21,11.13 53.69,23.78 55.07,35.52 1.55,13.02 -48.78,25.27 -45.21,39.71 6.17,25.14 -17.46,101.2 -2.82,133.75 7.62,16.98 25,0.48 35.55,20.3 1.78,3.34 15.6,327.01 -15.85,338 -54.15,18.91 -89.78,-15.77 -133.6,-1.99 -15.98,5.02 -24.35,41.97 -38.84,41.04 -16.2,-1.03 -16.76,-46.21 -31.88,-45.96 -6.52,0.11 -20.67,0.24 -36.18,0.57 -5.94,0.13 -12.43,55.17 -18.39,55.36 -18.62,0.63 -35.5,-53.1 -40.55,-51.17 -17.78,6.79 -53.72,-13.07 -66.08,-6.28 -15.71,8.68 5.26,21.01 -4.02,34.09 -13.63,19.27 -52.33,25.54 -38.84,39.04 36.79,36.85 185.4,14.23 391.78,14.23 160.28,0 320.52,-0.76 485.63,-1.61 15.7,-0.07 31.42,-36.29 47.21,-36.37 16.12,-0.08 32.37,35.95 48.6,35.87 104.67,-0.54 211.66,-1.08 322.12,-1.44 10.15,-0.03 -4.39,-41.84 23.61,-45.58 23.56,-3.15 26.37,45.42 36.11,45.41 34.8,-0.08 69.98,-0.16 105.51,-0.21 10.41,-0.02 9.05,-40.08 26.41,-42.18 45.57,-5.54 9.12,44.1 74.02,42.1 18.07,-0.56 45.02,-0.63 79.39,-0.34 7.52,0.06 5.74,-41.86 13.93,-42.57 30.48,-2.58 25.2,43.02 33.33,43.11 12.56,0.2 25.76,0.41 39.57,0.61 8.99,0.15 -0.4,-41.92 9,-43 51.23,-5.91 33.87,43.74 41.66,43.89 61.95,1.15 133.28,2.61 211.07,4.11 13.89,0.26 -5.28,-46.96 9.02,-46.7 6.6,0.11 64.04,-7.73 77.37,1.9 18.99,13.7 -5.04,46.33 4.57,46.49 12.84,0.24 25.81,0.47 38.85,0.69 8.07,0.13 -3.18,-45.33 4.85,-46.41 53.19,-7.21 38.39,47.13 47.91,47.3 39.57,0.65 79.44,-1.18 120.13,-2.21 8.3,-0.22 -4.16,-46.89 4.2,-47.34 51.78,-2.82 43.91,46.62 55.52,46.74 8.99,0.1 18.06,0.21 27.09,0.31 4.82,0.05 0.03,-45.39 4.84,-45.34 563.08,5.84 1123.79,3.63 1239.22,-5.41 28.01,-2.2 17.57,-12.12 14.33,-27.77 -2.97,-14.23 13.69,-38.91 -17.69,-57.07 -5.34,-3.06 -16.54,9.85 -22.41,6.6 -8.23,-4.58 3.89,50.62 -4.95,45.07 -8.17,-5.15 -37.6,7.21 -46.37,-0.29 -8.12,-6.98 10.2,-29.96 2.42,-39.35 -7.23,-8.71 -27.13,7.2 -34.52,-3.08 -6.11,-8.55 -0.98,-31.33 -6.73,-41.5 -5.21,-9.33 -75.74,14.33 -80.79,4.1 -38.84,-78.55 10.89,-72.69 -6.97,-347.5 -1.34,-20.7 -2.47,-62.66 -3.37,-116.5 -0.15,-8.41 -40.9,0.26 -41.35,-8.68 -2.18,-42 40.76,-30.68 40.69,-37.48 -0.47,-37.81 -0.84,-79.42 -1.06,-122.39 -0.05,-7.54 -33.15,3.42 -34.82,-4.02 -11.15,-49.49 34.65,-34.78 34.63,-42.83 -0.13,-39.85 -0.13,-80.16 -0.04,-119.08 0.04,-8.76 -34.87,0.52 -35.98,-8.02 -6.93,-52 36.16,-32.42 36.21,-39.47 0.78,-132.23 2.53,-244.15 7.21,-244.15 15.43,0 30.3,1.08 43.32,0.63 6.78,-0.24 -4.05,36.24 2.11,35.87 55.61,-3.22 111.13,2.73 168.93,0.44 5.86,-0.22 6.44,-15.2 2.63,-39.55 -0.68,-4.46 -41.08,4.16 -41.95,-0.83 -2.08,-12.02 -2.61,-26.11 -1.81,-41.35 0.15,-3.13 44.13,1.05 44.41,-2.16 1.16,-13.69 14.43,-46.73 -1.32,-43.99 -41.97,7.34 -42.37,7.28 -42.74,3.92 -2.16,-19.12 -2,-47.83 -1.37,-81.31 0.23,-11.41 34.26,-0.84 43.04,-6.07 10.5,-6.23 -1,-30.27 6.99,-34.58 20.99,-11.26 108.01,-4.82 120.52,-2.48 8.89,1.68 -2.42,64.63 3.05,74.29 5.55,9.78 33.95,-7.21 38.74,3.6 5.34,12.04 -3.34,84.41 6.91,91.54 5.67,3.95 38.47,4.19 77.1,-6.07 17.99,-4.79 5.47,-51.13 13,-80.84 3.02,-11.86 28.33,0.42 36.02,-9.62 10.97,-14.28 -3.45,-58.14 2.23,-74.37 2.29,-6.48 41.08,5.73 42.91,-0.68 8.31,-29.7 1.37,-59.61 3.29,-83.83 0.21,-2.95 -43.28,2.84 -42.97,0.07 1.52,-14.46 -5.66,-28.85 4.57,-36.16 6.18,-4.45 25.87,-2.5 76.71,-5.04 7.21,-0.35 -2.63,38.73 5.16,40.78 9.26,2.45 33,-2.97 38.57,7.24 4.98,9.15 -8.72,36.48 3.03,36.52 49.83,0.16 28.27,-33.06 54.15,-38.82 111.93,-24.91 64.61,70.22 74.02,77.95 3.45,2.86 38.69,-6.18 90.15,0.04 9.3,1.13 -8.65,-39.13 1.44,-37.91 12.88,1.58 26.62,3.68 40.89,6.11 5.98,1.02 -3.21,30.89 2.9,32 24.9,4.57 55.81,-0.18 82.46,2.76 9.54,1.05 -10.96,39.31 8.97,41.19 57.46,5.41 157.92,18.22 160.13,-11.43 1.08,-14.41 -22.12,-17.13 -38.58,-30 -15.07,-11.76 10.81,-60.04 -7.5,-76.89 -16.96,-15.62 -97.37,10.65 -121.28,-4.21 -28.09,-17.44 -1.72,-1.19 -4.79,-41.94 -0.66,-8.44 -22.44,2.81 -36.71,-6.37 -6.42,-4.13 -2.69,-29.9 -10.68,-34.43 -7.83,-4.47 -21.91,3.05 -30.79,-1.47 -12.07,-6.17 0.32,-32.68 -12.1,-39.35 -13.23,-7.13 -107.42,8.68 -120.31,1.82 -24.09,-12.81 -10.42,-38.26 -10.36,-62.4 0.05,-23.8 -13.83,-46.33 12.39,-64.64 24.37,-17.02 61.52,12.34 109.01,-4.61 31.22,-11.15 21.48,-94.61 13.75,-121.94 -5.35,-18.89 -155.71,-11.78 -171.78,2.78 -16.91,15.33 31.4,43.42 -83.45,36.65 -16.39,-0.95 4.55,43.97 -12.97,45.07 -55.27,3.45 -20.61,-38.13 -45.12,-44.37 -10.41,-2.63 -21.74,-6.28 -31.22,-10.8 -12.64,-6.02 6.07,-64.46 -5.05,-73.39 -16.02,-12.87 -65.74,16.2 -79.74,-0.42 -9.75,-11.54 2,-24.17 -6.44,-37.61 -6.21,-9.89 -34.45,-4.18 -40.26,-14.88 -5,-9.21 2.69,-21.46 -1.89,-31.27 -3.82,-8.21 -38.15,4.8 -41.82,-3.72 -25.24,-58.85 6.86,-216.64 -3.81,-280.43 -3.39,-20.25 -24.98,0.13 -41.69,-11.55 -12.83,-8.97 12.81,-65.37 -1.02,-79.07 -7.59,-7.5 -21.22,-8.57 -35.91,-7.5 -23.11,1.65 3.76,-31.58 -6.13,-36.08 -21.62,-9.8 -66.35,9.62 -82.47,-0.42 -8,-4.97 -0.24,-34.08 -7.21,-39.06 -6.34,-4.49 -30.37,1.69 -36,-2.81 -12.98,-10.36 8.68,-29.61 -1.5,-40.05 -7.37,-7.5 -61.06,6.97 -80.78,-1.55 -16.54,-7.13 0.7,-37.44 -6.74,-42.96 -9.15,-6.79 -32.17,9.63 -40.45,0.94 -5.39,-5.7 4.2,-37.29 -2.23,-40.63 -8.23,-4.31 -32.37,8.36 -43.26,-2.54 -5.24,-5.26 3.21,-37.82 -2.18,-38.98 -12.65,-2.72 -26.74,-2.31 -42.97,-0.45 -3.87,0.43 8.28,-29.27 -0.5,-41.61 -6.78,-9.59 -36.58,-1.61 -38.57,1.56 -3.34,5.44 3.08,40.79 -4.18,41.08 -38.65,1.6 -88.04,5.11 -127.94,-5.58 0,-12.22 0.78,-20.61 4.21,-36.39 1.41,-6.3 32.85,1.19 34.61,-5.52 9.22,-35.35 2.34,-89.07 8.52,-119.84 1.55,-7.74 37.06,4.76 38.4,-2.5 9.02,-49.21 3.42,-95.78 -2.68,-119.04 -4.81,-18.31 -178.72,-2.4 -201.93,-3.73 -20.83,-1.19 -12.89,24.01 -14.09,39.39 -0.82,10.21 -22.41,-4.39 -37.23,4.2 -9.78,5.66 4.37,31.98 -4.79,38.61 -15,10.91 -69.82,-8.1 -83.83,3.83 -9.26,7.89 5.57,30.83 -2.66,39.13 -6,6 -32.69,-2.7 -38.35,3.19 -5.47,5.63 5.29,36.72 -1.84,34.19 -30.64,-10.97 -40.2,0.44 -46.65,7.21 -4.74,4.97 3.35,35.18 -0.69,39.65 -8.47,9.28 -35.5,-4.39 -42.37,0 -6.15,3.97 3.74,40.92 0.06,41.87 -4.39,1.15 -38.16,8.47 -42.74,-2.1 -3.69,-8.52 -3.82,-22.7 -0.43,-39.55 1,-5.05 28.72,-0.69 39.15,-10.87 7.74,-7.58 2.15,-29.46 -26.16,-33.3 -13.52,-1.84 -6.84,-30.14 -8.7,-43.58 -2.74,-20.01 9,-108.52 -3.57,-117.07 -3.42,-2.32 -24.7,-5.7 -45.41,-8.28 -27.19,-3.41 -61.67,-9.31 -83,16.04 -12.04,14.3 1,49.17 -3.18,67.69 -2,8.7 -36.35,-6.1 -39.54,1.61 -8.26,19.67 1.5,42.73 -3.19,82.05 -4.84,4.49 -28.3,-2.16 -40.11,3.61 -4.65,2.28 1.39,37.37 -3.97,39.84 -18.17,8.41 -74.24,3.95 -117.87,1.4 -21.85,-1.28 -40.61,13.94 -49.93,-0.63 -12.46,-19.44 -26.79,-10.6 -1.81,-42.85 10.31,-13.3 -35.81,-6.43 -6.94,-35.24 8.26,-8.23 31.41,-4.32 38.87,-12.28 3.78,-4.02 -7.83,-20.07 -4.26,-24.01 9.52,-10.56 47.57,-4.86 55.81,-14.93 7.07,-8.73 -3.11,-24.07 3.13,-32.35 4.34,-5.78 33.51,-1.47 37.47,-7.07 8.31,-11.8 -0.95,-65.43 5.61,-76.52 2.61,-4.44 37.03,-3.45 39.39,-7.74 6.55,-12.01 -2.48,-28.27 2.08,-39.39 2.84,-6.94 -47.41,4.34 -45.28,-2.24 9.45,-29.22 1.47,-57.31 -0.48,-80.35 -1.11,-13.57 -37.31,5.98 -41.6,-5.52 -4.58,-12.26 7.26,-22.77 0.31,-33.26 -6.37,-9.65 -33.39,1.58 -41.81,-6.47 -5.45,-5.18 4.73,-72.32 -1.28,-76.96 -10.42,-8.02 -34.29,1.4 -46.2,-3.87 -4.72,-2.1 5.71,-40.16 0.86,-41.91 -22.25,-8 -141.33,0.08 -164.85,1.26 -12.56,0.65 -4.28,34.3 -7.18,61.59 -4.68,44.32 6.36,57.57 1.65,139.12 0,0.34 22.53,-2.82 38.94,9.81 9.26,7.12 5.97,16.88 1.31,35.39 -1.61,6.39 -36.56,-2.13 -40.24,6.07 -3.81,8.54 -2.92,21.15 -5.98,34.31 -1.44,6.15 -31.5,0.4 -35.56,6.42 -6.26,9.36 11.81,32.66 -6.96,37.05 -44.71,10.49 -95.11,2.42 -121.58,3.16 -14.6,0.41 4.78,-36.52 -5.96,-39.5 -10.74,-3 -28.98,-2 -36.89,-7.34 -8.08,-5.48 -0.87,-30.22 -6.42,-37.68 -3.34,-4.5 -38.97,4.8 -41.65,-0.13 -15.14,-27.74 2.31,-133.64 -0.54,-163.14 -1.19,-12.39 -36.16,-1.66 -40.11,-5.74 -5.71,-5.78 3.3,35.71 -5.16,39.87 -11.34,5.58 -30.63,1.61 -76.89,2.22 -7.41,0.1 -2.93,39.44 -10.45,44.46 -15.61,10.44 -151.63,-7.49 -167.56,-2.63 -16.09,4.89 4.63,-41.86 -7.62,-41.11 -12.96,0.79 -24.96,0.71 -36.16,-0.35 -2.85,-0.26 -0.15,-40.76 -2.92,-41.17 -9.79,-1.45 -30.28,2.97 -39.27,1.94 -9.17,-1.05 1.42,-42.76 -6.13,-45.15 -10.83,-3.4 -23.62,-1.43 -36.37,-1.69 -7.13,-0.15 0.32,-32.45 -6.48,-35.32 -9.65,-4.08 -35.31,5.07 -42.63,-11.04 -3.02,-6.63 3.78,-27.69 0.98,-32.4 -6.74,-11.33 -36.71,-0.47 -42.81,-1.84 -4.15,-0.94 -0.41,36.16 -4.05,38.78 -4.91,3.5 -33.93,-2.73 -38.56,4.76 -6.8,10.96 0.92,104.51 -4.39,122.11 -2.63,8.72 -37.5,0.24 -40.68,6.91 -3.98,8.29 1.31,22.7 -1.42,29.94 -4.31,11.38 -32.14,1.71 -40.34,8.7 -10.61,9.1 -4.9,132.88 -1.76,209.3 0.21,5.72 -40.23,-4.2 -40.86,2.16 -0.9,9.63 -2.28,20.09 -4.21,30.85 -1.28,7.2 -34.81,-0.16 -36.66,7.18 -1.79,7.15 -0.82,65.32 -2.73,72.59 -3.19,12.43 -50.41,7.62 -47.13,16.15 8.26,21.46 1.65,29.2 -0.79,33.71 -9.39,17.47 -95.09,18.86 -125.97,4.55 -15.93,-7.39 20.09,-68.46 -8.02,-84.18zm-509.63 1712.3l-51.23 1.81 6.44 1039.06 176.5 0 -3.23 -204.1 -41.45 -1.91 -1.87 -39.24 44.47 -3.56 0 -501.28 -42.6 -3.57 -5.57 -35.68 48.17 -7.13 -3.71 -32.11 -37.05 -5.36 -3.71 -35.68 42.62 -8.92 0 -244.4 -90.73 5.36 -1.87 30.32 -35.16 1.79 0 44.6zm-308.13 -376.5l-88.63 0 5.37 84.11 85.92 1.28 -2.66 32.35 41.63 6.47 -2.69 -38.82 -33.58 -1.28 -5.36 -84.11zm219.35 -877.22l-45.13 4.24 1.1 35 -85.83 3.18 -1.1 39.23 125.43 1.07 5.53 -82.72zm1039.25 -539.52l-90.01 -6.42 5.55 86.7 84.46 -2.15 0 -78.13zm175.5 79.21l-3.34 -126.31 44.42 0 0 41.74 42.23 0 1.1 83.48 -84.41 1.08zm257.7 -38.53l-42.21 -2.15 -1.11 84.57 -41.1 -2.16 -2.23 172.33 44.44 -2.15 -2.19 -125.22 44.41 -2.15 0 -123.08zm303.28 124.15l-1.13 -83.49 39.98 0 4.47 40.66 42.2 1.1 -1.1 39.58 -84.42 2.15zm39.95 377.82l-44.44 0 0 164.83 86.65 0 2.21 -40.66 -42.2 0 -2.22 -124.17zm173.28 -49.23l-42.23 4.29 0 44.94 -37.76 6.44 -6.66 32.11 86.65 4.28 0 -92.06zm444.32 297.56l-4.42 -83.5 37.77 4.29 -2.24 77.07 -31.11 2.15zm82.23 124.15l-4.45 -38.53 42.21 0 0 36.39 -37.76 2.15zm649.83 335.05l-3.33 -40.67 85.52 -1.08 1.13 37.47 -83.32 4.28zm129.99 39.61l-3.34 -80.28 87.75 -1.08 0 80.28 -84.41 1.08zm-433.1 420.1l40.26 0 0 42.81 -40.26 0 0 -42.81zm-6.92 169.91l47.18 0 0 42.81 -47.18 0 0 -42.81zm47.18 497.7l40.28 0 0 331.8 -40.28 0 0 -331.8zm-2386.91 -590.01l45.84 0 0 48.17 -45.84 0 0 -48.17zm605.41 299.69l48.6 0 0 -86.96 48.63 0 0 252.85 -48.63 0 0 -41.47 -48.6 0 0 -124.43zm88.88 326.45l45.84 0 0 46.82 -45.84 0 0 -46.82zm606.81 255.53l41.65 0 0 88.3 -41.65 0 0 41.48 -40.26 0 0 -45.49 -45.84 0 0 -38.8 45.84 0 0 -85.62 40.26 0 0 40.13zm-604.03 -85.63l41.66 0 0 211.4 -6.94 0 -34.72 0 -41.63 0 0 -40.15 41.63 0 0 -171.25zm-775.96 -867.66l-48.15 -5.15 2.68 41.21 -48.1 2.58 -2.69 48.94 -42.78 -10.3 0 244.72 -42.76 2.57 0 136.53 48.13 -5.15 -5.37 36.05 -37.44 0 0 46.37 37.44 -2.58 -5.36 38.65 -40.08 0 5.34 46.36 42.76 0 0 38.65 -42.76 -2.57 5.36 43.78 40.11 5.17 -2.71 36.06 -34.74 5.15 -2.66 79.84 34.74 0 0 257.59 48.13 -2.57 0 41.21 176.43 0 -2.66 -41.21 302.08 -2.58 0 -38.63 171.11 0 0 -41.22 80.21 -5.15 -2.7 -291.07 -40.1 -2.58 2.68 -121.07 -37.44 0 -2.66 -41.21 -42.76 -7.73 2.68 -242.13 -221.92 2.56 -2.65 30.93 -37.45 0 2.7 43.78 -42.8 2.58 -2.68 -38.65 -48.1 -2.56 2.67 -41.21 -45.46 -5.17 0 -30.9 -40.11 -2.58 -2.65 285.93 -42.78 2.57 2.66 41.22 40.11 0 0 247.28 -45.46 -2.58 0 -38.65 -34.76 2.6 2.7 -785.67zm1717.8 117.44l10.31 -39.74 131.48 4.97 0 44.71 -41.26 -2.48 0 193.73 43.84 2.48 -5.18 765.04 -38.66 -2.48 -2.56 -47.18 -85.09 0 -5.17 -39.74 -41.24 -2.48 2.59 -44.71 -43.82 -4.97 2.57 -34.77 -48.97 0 2.58 -34.79 -41.26 -4.96 -5.15 -37.26 -33.5 -4.97 -5.16 -37.26 -38.66 -2.48 -10.33 -121.71 -36.1 -7.46 -2.55 -370.09 46.37 -2.49 0 34.78 123.75 2.48 -5.17 -42.21 38.68 -4.97 0 -77 51.56 -2.49 -2.57 -72.03 38.66 -7.46zm355.7 -125l-4.71 -84.52 225.18 2.29 -4.73 38.82 42.67 2.29 0 41.11 45.02 4.57 0 36.55 -42.65 0 -2.37 38.82 47.41 2.28 2.37 210.15 -52.13 0 4.72 43.39 40.28 2.28 -4.71 38.84 -40.29 2.29 4.72 703.49 -85.34 6.86 -4.76 -50.24 -40.29 6.85 -2.35 41.1 -35.58 2.29 -2.36 -45.68 -42.66 0 -9.49 43.39 -170.67 0 4.73 -43.39 -47.43 2.29 0 -333.48 47.43 -4.58 -7.12 -164.44 -42.66 2.28 4.74 -41.11 45.04 -2.28 0 -79.95 -42.68 -6.86 2.39 -75.37 37.92 -2.29 -2.35 -171.3 -37.95 -2.28 0 -31.98 45.07 -11.43 0 -70.8 82.96 -6.86 4.73 45.68 42.69 -6.86 0 -41.1 42.67 -9.13 -2.36 -34.26 -45.07 2.28zm219.35 918.07l-43.31 1.07 0 40.68 42.21 3.21 1.1 -44.96zm-2329.03 -1426.14l24.72 50.68c-5.57,4.13 -17.94,7.52 -37.11,10.52 -19.15,3 -43.89,5.63 -74.61,7.7 -35.26,31.92 -70.69,58.2 -105.72,79.24 -35.26,21.01 -70.29,36.42 -104.7,46.37 -8.26,2.24 -17.33,4.5 -27.83,7.13 -6.41,0 -13.62,-1.13 -21.25,-3.58 -7.62,-2.44 -16.09,-5.81 -25.33,-10.13 -9.49,-5.44 -17.1,-10.87 -22.27,-15.96 -5.13,-5.07 -7.82,-10.5 -7.82,-15.96 0,-11.07 5.76,-21.59 17.5,-31.92 11.76,-10.33 28.85,-20.09 51.33,-29.09 45.15,-19.15 89.67,-38.5 133.77,-57.83 6.42,0 10.94,1.11 13.83,3.56 2.87,2.44 4.32,5.44 4.32,9 0,9.96 -7.82,18.4 -23.28,25.16 -15.67,6.76 -23.3,11.65 -23.3,14.46 2.66,3.76 5.13,5.65 7.21,5.65 5.17,0 16.91,-7.33 34.85,-21.61 17.93,-14.26 26.56,-23.28 26.16,-26.85l-2.89 -12.76 1.05 -2.07c10.51,-8.44 18.33,-15.96 23.3,-22.72 5.11,-6.57 7.61,-11.83 7.61,-15.96 0,-9.2 -4.97,-21.39 -15.04,-36.79 -10.11,-15.41 -25.15,-33.98 -45.36,-55.59 -15.25,-16.89 -30.74,-32.09 -45.97,-45.44 -15.23,-13.33 -30.08,-25.16 -44.1,-35.47 -5.57,-4.52 -10.54,-8.65 -14.44,-12.96 -4.11,-4.15 -7.41,-8.08 -9.68,-11.83 -4.55,-7.33 -8.05,-13.35 -10.71,-18.22 -2.47,-4.7 -4.97,-7.89 -6.83,-9.39 -2.05,-2.06 -4.74,-4.69 -8.23,-7.89 -3.5,-3.19 -7.65,-6.76 -12.36,-10.7 -8.47,-8.09 -15.04,-19.33 -19.59,-33.61 -4.74,-14.26 -7.02,-32.09 -7.02,-53.31 0,-14.09 2.08,-27.41 6.41,-40.57 4.1,-12.96 10.28,-24.59 18.35,-34.92 1.22,-2.26 2.45,-4.7 3.7,-7.7 1.02,-3 2.47,-6.2 4.11,-9.96 9.28,-17.26 24.96,-35.85 47.02,-55.76 22.27,-20.09 51.12,-41.29 86.96,-63.66 4.78,-2.24 10.73,-5.05 17.56,-8.81 6.78,-3.56 14.43,-8.45 22.86,-14.26 4.96,-3.76 10.12,-6.95 16.09,-9.96 5.74,-2.82 12.76,-5.63 20.8,-8.26 10.91,-3.94 23.09,-8.44 36.69,-13.13 20.2,-9.59 36.9,-16.54 50.07,-20.85 13.43,-4.5 23.5,-6.59 30.32,-6.59 13.18,0 23.09,3.57 29.88,10.89 6.61,7.33 9.91,18.04 9.91,31.92 0,15.39 -1.24,27.98 -3.92,37.76 -2.7,9.76 -6.2,16.14 -10.51,19.51 -47.42,34.55 -85.76,60.46 -114.63,77.92 -29.05,17.46 -49.23,26.11 -61.01,26.11 -5.57,0 -10.09,-1.5 -13.18,-4.5 -3.3,-2.82 -4.94,-7.33 -4.94,-13.15 0,-9.96 9.06,-20.83 27.21,-32.66 18.13,-12.04 27.01,-21.04 26.59,-27.24l-5.57 -3.37c-1.85,0 -4.34,0.57 -6.81,1.7 -2.69,1.13 -5.35,2.42 -8.26,4.31 -35.22,26.09 -62.01,49.57 -79.95,70.22 -17.75,20.65 -26.82,38.87 -26.82,54.26 0,12.02 2.28,24.4 7.02,36.79 4.55,12.59 11.34,25.35 20.2,38.48 6.41,9.21 15.88,20.85 28.03,34.93 12.38,14.26 28.06,31.16 47,51.07 26.17,27.41 46.17,48.63 60.4,63.83 14.04,15.02 21.87,22.91 23.51,23.65 8.04,9.59 15.06,18.98 20.59,28.53 5.58,9.59 9.49,18.78 11.56,27.61 1.84,6.95 3.31,15.59 4.1,25.72 0.85,10.33 1.26,22.91 1.26,37.55 0,7.89 1.45,12.41 4.11,13.72 2.69,1.31 7,1.87 13.18,1.87 2.29,0 4.15,-0.37 5.57,-1.31 1.24,-0.93 2.91,-2.06 4.36,-3.56zm19.59 -23.85l54.8 -32.67c2.07,-1.87 4.34,-4.31 7.21,-7.5 2.91,-3 5.97,-7.52 9.71,-13.33 2.86,-4.89 6.57,-8.83 11.12,-12.2 4.52,-3.2 9.89,-6.2 16.07,-8.83 3.1,-3.57 7.86,-8.26 13.83,-13.72 5.97,-5.44 13.59,-11.83 22.86,-19.15 4.54,-2.26 10.1,-5.44 16.91,-9.76 6.78,-4.13 14.21,-9.76 22.25,-16.7 36.71,-31.55 68.64,-55.2 96.25,-70.97 27.63,-15.78 50.72,-23.65 69.68,-23.65 10.52,0 18.15,2.05 23.09,6 5.13,4.13 7.61,9.74 7.61,17.07 0,7.7 -1.44,14.46 -4.55,20.28 -3.06,6.02 -7.61,10.89 -14.21,14.83 -9.88,6.76 -20.8,14.09 -32.53,22.17 -6.41,7.68 -14.25,15.75 -23.51,24.4 -9.28,8.63 -20.01,17.09 -32.58,25.52 -3.92,4.89 -7.42,9.02 -10.08,12.78 -2.07,1.7 -6,5.07 -11.54,9.76 -5.57,4.89 -13,10.33 -22.28,16.52 -4.13,8.07 -12.78,18.57 -26.38,31.35 -13.39,12.96 -31.32,28.35 -53.78,46.18 -2.91,2.63 -7.83,8.46 -15.26,17.65 -7.23,9.21 -16.7,21.22 -28.24,36.42l4.11 4.89c8.86,-2.63 18.15,-6.95 27.82,-13.13 9.7,-6.39 20.43,-14.65 32.18,-24.8 13.59,-11.44 24.72,-20.64 33.37,-27.79 8.68,-7.13 14.85,-11.81 18.57,-14.07 2.68,-1.5 5.57,-3 8.24,-4.32 2.89,-1.5 6.18,-3.37 9.68,-5.63 18.54,-20.09 35.85,-35.11 51.73,-44.68 16.09,-9.76 30.93,-14.65 44.74,-14.65 8.44,0 14.81,3 19.17,9.02 4.52,6 7,15.2 7.81,27.22 -0.81,18.4 -1.24,36.05 -1.24,52.77 -0.39,11.81 3.09,22.33 10.52,31.72 7.42,9.39 17.12,14.09 29.06,14.09 3.71,0 7.23,-0.95 10.54,-2.82 3.5,-1.87 7,-4.32 10.52,-7.33 2.85,-3.37 5.55,-6.57 8.02,-9.57 2.66,-3 5.37,-5.83 8.04,-8.83 1.65,-0.76 3.94,-2.07 7,-3.94 2.9,-1.89 5.78,-4.13 8.68,-6.76 5.76,11.07 10.7,20.65 14.62,28.91 3.92,8.26 6.81,15.57 8.86,21.77 -9.26,7.7 -18.33,15.78 -27.38,24.04 -9.09,8.46 -18.57,16.33 -28.69,23.65 -12.17,8.46 -23.7,14.85 -35.03,19.14 -11.13,4.33 -22.46,6.39 -33.79,6.39 -25.99,0 -46.2,-6.74 -60.19,-20.27 -14.04,-13.71 -22.27,-34.17 -24.77,-61.77 0,-3.19 -0.6,-6.58 -1.42,-10.15 -1.03,-3.37 -3.29,-6.94 -6.41,-10.7 -2.05,1.87 -4.29,3.76 -6.6,5.83 -2.47,2.06 -5.33,4.69 -8.43,7.87 -5.37,3.76 -11.97,8.26 -19.81,13.89 -7.81,5.46 -16.88,12.02 -27.4,19.72 -14.25,13.15 -25.98,24.04 -35.66,32.48 -9.7,8.44 -16.7,14.46 -20.61,18.22 -8.05,6.2 -17.52,12.39 -28.25,18.59 -10.49,6.2 -22.66,12.57 -35.85,19.33 -8.46,3.94 -15.69,7.15 -21.85,9.59 -5.98,2.43 -10.52,3.56 -13.18,3.56 -19.38,0 -33.82,-4.32 -43.1,-12.96 -9.28,-8.65 -13.8,-21.96 -13.8,-40.18 0,-9.96 2.47,-19.35 7.2,-28.35 4.74,-9.02 11.78,-17.83 21.23,-26.29 0.82,-4.89 1.26,-8.65 1.26,-11.65 0,-1.87 -0.44,-3.74 -1.45,-5.61 -1.03,-2.08 -2.47,-4.33 -3.91,-6.78 -2.5,-5.24 -5.16,-11.07 -8.26,-17.46 -2.87,-6.57 -6.18,-13.52 -9.89,-20.83 1.66,-1.52 3.91,-4.33 7.02,-8.46 2.87,-4.13 6.37,-9.39 10.52,-15.39zm444.37 23.85c1.65,-2.63 3.69,-5.46 6.41,-8.46 2.66,-3.19 5.76,-6.94 9.26,-11.26 4.11,-2.82 9.28,-7.13 15.88,-12.57 6.37,-5.45 13.6,-11.84 21.64,-19.15 7.21,-7.33 16.28,-16.35 26.61,-27.05 10.5,-10.89 23.28,-23.85 38.13,-39.24 6.57,-6.2 14.62,-14.07 24.31,-23.66 9.68,-9.76 21.01,-21.39 34.43,-34.92 11.33,-12.02 23.27,-20.85 36.26,-26.66 12.97,-5.84 26.61,-8.84 41.23,-8.84 14.44,0 25.15,4.15 31.93,12.39 6.83,8.26 10.33,20.11 10.33,35.87 0,8.46 -3.5,24.59 -10.33,48.25 -6.78,23.85 -17.49,55.2 -31.93,94.44 -3.71,7.33 -7.22,14.28 -10.33,20.85 -2.45,4.68 -4.1,9 -4.92,12.57 -0.84,3.76 -1.03,6.59 -1.03,8.26 0,2.26 1.24,5.07 4.1,8.26 2.07,-1.13 3.92,-2.44 5.78,-4.31 1.86,-1.89 3.94,-4.13 6.41,-6.58 3.06,-5.63 8.02,-11.26 14.63,-17.46 6.81,-6 14.63,-12.76 23.93,-20.09 3.7,-6.2 8.21,-12.39 14.22,-18.4 5.78,-6 12.37,-11.63 19.57,-16.72 1.63,-1.48 3.7,-3.94 6.39,-7.13 2.45,-3.37 5.57,-6.76 9.26,-10.51 5.16,-4.69 11.54,-9.78 18.76,-14.84 7.21,-5.07 15.67,-10.5 25.37,-15.94 10.72,-5.08 20.59,-9.21 29.27,-12.21 8.63,-2.82 16.07,-4.31 22.65,-4.31 12.38,0 23.5,2.81 33.18,8.26 9.49,5.44 17.75,14.07 24.75,25.72 8.04,22.72 15.65,43.73 22.87,63.07 4.35,11.46 9.29,19.9 14.84,25.35 5.36,5.44 11.54,8.26 18.33,8.26 5.18,0 9.7,-0.93 13.83,-2.82 4.13,-1.87 8.04,-4.69 11.55,-8.44l24.72 50.68c-6.78,5.07 -13.8,10.52 -21.02,15.96 -7.41,5.65 -14.43,10.89 -21.24,15.96 -9.28,7.7 -17.93,13.15 -25.96,16.35 -8.04,3.18 -16.07,4.69 -24.11,4.69 -9.29,0 -18.15,-1.89 -26.59,-5.45 -8.47,-3.74 -15.69,-9.2 -21.65,-16.52 -3.31,-2.81 -7.21,-8.26 -12.17,-16.13 -4.73,-7.89 -10.3,-17.65 -16.9,-29.48 -5.15,-4.7 -11.13,-10.89 -17.73,-18.78 -6.57,-7.87 -14.41,-17.09 -23.27,-27.79l-5.36 -1.69c-7.63,2.26 -15.28,5.65 -22.7,9.96 -7.39,4.32 -15.46,10.15 -23.7,17.09 -18.11,14.65 -31.3,23.66 -39.35,27.42 -8.02,3.56 -13.39,7.87 -16.28,12.57 -5.57,8.83 -15.25,20.28 -28.85,34.18 -13.62,13.89 -30.72,30.42 -51.33,49.37 -5.15,4.89 -10.31,9.39 -15.67,14.09 -5.16,4.5 -10.52,9.02 -15.65,13.52 -5.15,3.94 -11.15,6.76 -17.73,8.44 -6.61,1.71 -14.04,2.45 -22.06,2.45 -16.09,0 -24.95,-5.07 -26.17,-15.22 -1.44,-10.13 -2.89,-20.27 -4.13,-30.61 6.2,-15.39 13.01,-34.53 20.59,-57.81 7.65,-23.11 16.52,-49.94 26.41,-80.92 0,-1.7 0.81,-4.13 2.26,-7.33 1.24,-3.2 3.1,-7.33 4.96,-12.39 2.05,-4.69 3.5,-8.83 4.31,-12.39 0.84,-3.37 1.26,-6.57 1.26,-9.02 0,-2.61 -1.05,-4.68 -3.12,-6.18 -2.06,-1.32 -5.15,-2.08 -9.67,-2.08 -3.92,0 -9.28,2.08 -15.89,6.58 -6.81,4.31 -14.63,11.26 -23.89,20.83 -11.35,11.09 -20.41,19.72 -27.19,25.92 -6.81,6.2 -11.57,9.95 -13.83,11.07 -4.11,2.45 -8.87,6.2 -14.23,10.89 -5.36,4.89 -11.52,10.15 -18.35,15.96 -0.81,1.5 -2.06,3.76 -3.71,6.58 -1.65,3 -4.11,6.2 -7.82,9.94 -1.65,-5.44 -4.54,-12.39 -8.65,-20.46 -4.11,-8.08 -9.49,-18.02 -16.09,-30.22zm577.36 0c2.87,-2.83 6.37,-6.96 10.31,-12.22 4.11,-5.24 9.24,-11.44 15.25,-18.2 5.37,-3.95 11.54,-9.39 18.35,-16.15 7.02,-6.57 14.62,-15.02 23.06,-25.15 3.31,-6.39 7.21,-13.15 11.97,-20.65 4.52,-7.5 9.89,-16.52 15.86,-26.67 2.48,-9.94 8.26,-21.2 17.12,-33.97 8.88,-12.59 21.03,-26.87 36.91,-42.63 22.04,-22.35 45.31,-46.18 69.46,-71.35 12.57,-16.89 26.17,-29.46 40.79,-37.55 14.84,-8.07 30.53,-12 47.62,-12 11.13,0 19.8,4.5 25.57,13.7 5.95,9.2 8.86,22.72 8.86,40.74 0,6.57 -4.95,16.89 -14.86,30.79 -9.89,13.91 -24.93,31.74 -45.13,53.33 -12.38,13.7 -25.56,27.03 -39.15,40.55 -13.83,13.35 -27.22,27.05 -40.63,40.94 -5.98,5.07 -12.36,10.7 -18.97,16.7 -6.57,6.02 -13.78,12.78 -21.4,20.11 -2.5,7.7 -5.15,16.33 -7.86,25.9 0,14.28 1.05,26.67 2.91,37.18 2.05,10.33 5.11,19.35 9.05,26.66 2.07,2.45 6.39,8.26 12.99,17.28 6.8,9.02 15.65,20.65 27.01,34.93 2.68,3.55 6.18,7.31 10.09,11.07 4.13,3.57 8.68,7.33 14.04,10.89 5.97,-2.26 17.7,-12.02 34.82,-29.67 17.31,-17.46 40.61,-42.44 69.89,-74.53l23.48 50.68c-2.87,3 -8.23,8.84 -16.06,17.85 -7.83,9 -17.33,20.83 -28.67,35.68 -12.97,15.39 -25.96,31.92 -39.34,49.55 0,3.58 1.84,7.89 5.76,12.59 3.91,4.87 8.63,10.13 14.2,15.98 10.5,11.07 19.38,25.33 27.01,42.98 7.42,17.65 13.21,39.05 17.12,64.4 -0.42,1.87 -0.84,4.89 -1.44,8.82 -0.61,4.13 -1.24,8.63 -1.45,13.89 -4.96,42.24 -33.4,84.49 -85.76,126.73 -52.13,42.24 -101.4,63.28 -147.77,63.28 -21.46,0 -38.55,-2.45 -51.12,-7.52 -12.78,-4.89 -21.65,-12.39 -27.01,-22.17 -2.05,-4.87 -3.5,-14.26 -4.71,-28.16 -1.26,-13.89 -1.86,-32.48 -1.86,-55.57 0,-2.26 1,-6.57 3.26,-12.96 2.31,-6.57 6,-15.2 11.15,-26.29 2.87,-7.31 6.8,-14.83 11.94,-22.89 4.96,-7.89 10.31,-16.33 15.88,-25.53 5.78,-7.71 11.56,-15.22 17.3,-22.54 5.78,-7.33 11.34,-14.85 16.7,-22.15 12.78,-12.76 24.35,-24.22 34.43,-34.16 7.63,-6.97 13.6,-13.52 17.94,-19.72 4.11,-6.21 6.18,-11.85 6.18,-16.52 -13.6,-17.28 -27.41,-33.8 -41.02,-49.59 -14.63,-16.51 -26.4,-33.03 -35.48,-49.55 -9.04,-16.52 -15.04,-33.44 -17.69,-50.7 -0.42,-2.26 -2.06,-5.63 -4.95,-10.52 -9.3,8.08 -18.36,16.35 -27.22,24.78 -1.65,-5.44 -4.52,-12.39 -8.65,-20.46 -4.13,-8.08 -9.49,-18.02 -16.07,-30.22zm198.49 231.87c-2.28,0 -7.83,5.07 -16.49,15.39 -8.67,10.15 -20.39,25.35 -35.22,45.62 -8.49,12.02 -17.14,24.41 -25.57,36.81 -8.46,12.39 -17.1,24.78 -26.4,36.8 -3.29,4.13 -8.04,13.7 -14.01,28.72 -5.97,15.02 -9.07,24.61 -9.07,28.54 0,6.94 2.26,12.2 6.37,15.39 4.34,3.39 10.73,4.87 19.59,5.07 31.13,-0.19 62.87,-15.39 95.44,-46 32.58,-30.59 48.86,-60.07 48.86,-88.23 0,-6.02 -1.05,-12.78 -3.5,-20.65 -2.48,-7.89 -5.57,-16.72 -9.71,-26.11 -5.13,-10.7 -10.28,-18.59 -15.04,-23.66 -4.94,-5.26 -9.89,-7.7 -15.25,-7.7zm153.58 -255.72l54.8 -32.67c2.08,-1.87 4.34,-4.31 7.21,-7.5 2.91,-3 5.99,-7.52 9.7,-13.33 2.87,-4.89 6.59,-8.83 11.13,-12.2 4.52,-3.2 9.89,-6.2 16.09,-8.83 3.06,-3.57 7.84,-8.26 13.8,-13.72 5.97,-5.44 13.59,-11.83 22.9,-19.15 4.52,-2.26 10.08,-5.44 16.89,-9.76 6.78,-4.13 14.2,-9.76 22.27,-16.7 36.69,-31.55 68.61,-55.2 96.22,-70.97 27.64,-15.78 50.75,-23.65 69.68,-23.65 10.55,0 18.15,2.05 23.11,6 5.13,4.13 7.63,9.74 7.63,17.07 0,7.7 -1.45,14.46 -4.56,20.28 -3.07,6.02 -7.6,10.89 -14.2,14.83 -9.91,6.76 -20.81,14.09 -32.56,22.17 -6.41,7.68 -14.23,15.75 -23.51,24.4 -9.28,8.63 -20,17.09 -32.58,25.52 -3.91,4.89 -7.41,9.02 -10.07,12.78 -2.06,1.7 -5.98,5.07 -11.55,9.76 -5.59,4.89 -12.98,10.33 -22.27,16.52 -4.12,8.07 -12.76,18.57 -26.38,31.35 -13.38,12.96 -31.34,28.35 -53.8,46.18 -2.91,2.63 -7.84,8.46 -15.23,17.65 -7.24,9.21 -16.72,21.22 -28.27,36.42l4.17 4.89c8.83,-2.63 18.1,-6.95 27.79,-13.13 9.71,-6.39 20.43,-14.65 32.17,-24.8 13.59,-11.44 24.72,-20.64 33.39,-27.79 8.67,-7.13 14.84,-11.81 18.56,-14.07 2.68,-1.5 5.55,-3 8.26,-4.32 2.84,-1.5 6.15,-3.37 9.67,-5.63 18.54,-20.09 35.87,-35.11 51.73,-44.68 16.09,-9.76 30.92,-14.65 44.71,-14.65 8.46,0 14.86,3 19.19,9.02 4.55,6 7.02,15.2 7.82,27.22 -0.81,18.4 -1.22,36.05 -1.22,52.77 -0.42,11.81 3.08,22.33 10.5,31.72 7.42,9.39 17.12,14.09 29.06,14.09 3.71,0 7.23,-0.95 10.54,-2.82 3.5,-1.87 7,-4.32 10.5,-7.33 2.89,-3.37 5.57,-6.57 8.04,-9.57 2.69,-3 5.36,-5.83 8.04,-8.83 1.65,-0.76 3.91,-2.07 7,-3.94 2.89,-1.89 5.78,-4.13 8.67,-6.76 5.76,11.07 10.71,20.65 14.63,28.91 3.91,8.26 6.81,15.57 8.86,21.77 -9.26,7.7 -18.33,15.78 -27.4,24.04 -9.07,8.46 -18.56,16.33 -28.67,23.65 -12.13,8.46 -23.7,14.85 -35.05,19.14 -11.12,4.33 -22.44,6.39 -33.77,6.39 -25.98,0 -46.17,-6.74 -60.19,-20.27 -14.06,-13.71 -22.28,-34.17 -24.77,-61.77 0,-3.19 -0.61,-6.58 -1.42,-10.15 -1.05,-3.37 -3.29,-6.94 -6.41,-10.7 -2.05,1.87 -4.32,3.76 -6.61,5.83 -2.45,2.06 -5.33,4.69 -8.43,7.87 -5.35,3.76 -11.94,8.26 -19.78,13.89 -7.82,5.46 -16.91,12.02 -27.41,19.72 -14.22,13.15 -25.98,24.04 -35.66,32.48 -9.71,8.44 -16.69,14.46 -20.6,18.22 -8.07,6.2 -17.54,12.39 -28.26,18.59 -10.52,6.2 -22.65,12.57 -35.85,19.33 -8.46,3.94 -15.69,7.15 -21.85,9.59 -6,2.43 -10.5,3.56 -13.2,3.56 -19.38,0 -33.8,-4.32 -43.08,-12.96 -9.28,-8.65 -13.8,-21.96 -13.8,-40.18 0,-9.96 2.47,-19.35 7.21,-28.35 4.74,-9.02 11.75,-17.83 21.22,-26.29 0.84,-4.89 1.26,-8.65 1.26,-11.65 0,-1.87 -0.42,-3.74 -1.45,-5.61 -1.05,-2.08 -2.47,-4.33 -3.91,-6.78 -2.48,-5.24 -5.18,-11.07 -8.24,-17.46 -2.89,-6.57 -6.21,-13.52 -9.91,-20.83 1.65,-1.52 3.9,-4.33 7.02,-8.46 2.89,-4.13 6.37,-9.39 10.52,-15.39zm444.38 23.85c2.47,-2.63 5.13,-6.02 8.42,-10.15 3.31,-4.13 6.83,-8.83 10.94,-13.88 17.74,-20.11 34.84,-38.13 51.52,-54.09 16.7,-15.77 32.58,-30.03 47.42,-42.42 7.62,-6.59 16.88,-15.02 27.82,-25.54 10.93,-10.33 23.51,-22.35 38.15,-35.87 14.44,-5.07 30.29,-10.88 47.6,-17.46 10.94,0 18.96,3.2 24.12,9.59 5.37,6.39 8.04,15.59 8.04,27.78 0,10.13 -1.02,21.22 -2.87,33.24 -1.67,11.81 -4.33,24.03 -7.43,36.42 -3.72,9.76 -6.81,19.35 -9.07,28.54 0,2.44 0.6,4.5 1.85,5.81 1,1.13 3.07,1.87 5.96,1.87 5.98,-2.61 17.75,-11.81 35.05,-27.59 17.3,-15.76 40.19,-37.72 68.41,-66.09 24.35,-24.2 45.37,-42.24 63.7,-54.25 18.14,-11.83 32.58,-17.85 43.5,-17.85 11.75,0 20.22,3.94 25.56,11.83 5.57,7.89 8.23,19.54 8.23,34.92 0,22.35 -1.84,43.76 -5.35,64.4 -3.71,20.85 -9.88,40.57 -18.75,59.72 -1.65,3.57 -2.66,6.76 -3.1,9.37 -0.4,2.45 -0.61,4.89 -0.61,7.15 0,2.44 2.47,4.87 7.23,7.13 3.29,-2.63 7.02,-6.2 11.33,-11.07 4.11,-4.7 9.07,-10.72 14.63,-18.04 9.26,-6.94 18.56,-13.88 27.82,-21.03 9.26,-6.94 19.38,-14.07 30.11,-21.4 11.33,-8.08 22.86,-14.09 34.4,-18.39 11.76,-4.13 23.11,-6.21 34.43,-6.21 2.05,0 4.15,0.57 5.97,1.5 2.05,1.13 4.13,2.45 6.19,3.96 9.26,7.31 16.9,14.09 22.87,20.09 5.97,6 10.31,11.26 12.57,15.59 15.7,29.29 29.69,51.25 42.07,65.71 12.17,14.46 23.06,21.59 32.13,21.59 2.08,0 4.15,-0.37 6.21,-1.31 2.05,-0.93 3.9,-2.06 5.95,-3.56 9.28,18.02 17.12,34.92 23.53,50.68 -14.44,10.33 -27.43,18.22 -38.55,23.48 -11.34,5.44 -21.23,8.09 -29.69,8.09 -27.61,0 -56.28,-16.35 -85.96,-49.39 -29.46,-32.85 -52.13,-49.2 -67.8,-49.2 -20.81,0 -55.64,28.17 -104.32,84.68 -48.63,56.51 -78.94,84.87 -91.09,84.87 -5.99,0 -14.22,-0.56 -24.35,-1.69 -3.06,-1.11 -5.55,-3.57 -7.2,-7.13 -1.63,-3.57 -2.47,-7.71 -2.47,-12.41 0,-5.61 1.24,-12.76 3.7,-21.76 2.48,-9.02 5.58,-19.53 9.7,-31.74 5.36,-15.39 9.47,-27.59 12.78,-36.79 3.1,-9.2 4.95,-15.59 5.36,-19.15 1.26,-4.87 2.91,-14.26 5.16,-28.16 2.26,-13.89 5.17,-32.48 8.88,-55.57 0,-3.95 -1.24,-7.15 -3.71,-9.2 -2.47,-2.26 -5.17,-3.39 -8.47,-3.39 -2.87,0 -5.97,0.76 -9.49,2.44 -3.29,1.68 -7.21,4.32 -11.73,8.08 -4.76,4.68 -10.12,9.38 -16.07,14.26 -5.78,4.7 -15.27,11.46 -28.05,20.27 -14.22,14.65 -28.64,29.67 -43.48,44.89 -14.64,15.2 -29.69,30.59 -45.15,45.99 -24.11,25.54 -43.47,44.5 -57.7,56.89 -14.44,12.2 -23.53,18.4 -27.63,18.4 -11.97,0 -21.04,-1.31 -27.41,-3.74 -6.17,-2.65 -9.28,-6.58 -9.28,-11.65 0,-12.02 7.23,-37.18 21.44,-75.48 14.2,-38.29 21.2,-65.14 21.2,-80.92 0,-2.61 -0.8,-4.68 -2.66,-6.37 -1.84,-1.69 -4.15,-2.44 -6.81,-2.44 -4.94,0 -10.52,2.44 -17.07,7.31 -6.82,4.89 -14.25,12.78 -22.7,23.28 -5.57,5.82 -12.36,12.59 -20.41,20.09 -8.02,7.7 -17.7,16.72 -29.48,26.85 -1.02,2.83 -2.66,5.63 -4.73,8.46 -2.05,2.61 -4.13,5.26 -6.6,7.87 -1.65,-5.44 -4.55,-12.39 -8.67,-20.46 -4.1,-8.08 -9.49,-18.02 -16.06,-30.22z"/>
 </g>
</svg>
